<mxfile host="65bd71144e">
    <diagram id="HIP3nbAZw_EuaXWnEj3U" name="Page-1">
        <mxGraphModel dx="1045" dy="721" grid="1" gridSize="10" guides="1" tooltips="1" connect="1" arrows="1" fold="1" page="1" pageScale="1" pageWidth="850" pageHeight="1100" math="0" shadow="0">
            <root>
                <mxCell id="0"/>
                <mxCell id="1" parent="0"/>
                <mxCell id="7" value="http://ics2o.mths.ca" style="swimlane;whiteSpace=wrap;html=1;" parent="1" vertex="1">
                    <mxGeometry x="40" y="40" width="760" height="430" as="geometry"/>
                </mxCell>
                <mxCell id="8" value="&lt;span style=&quot;font-size: 19px;&quot;&gt;Counter&lt;/span&gt;" style="rounded=0;whiteSpace=wrap;html=1;align=left;" parent="7" vertex="1">
                    <mxGeometry y="20" width="760" height="50" as="geometry"/>
                </mxCell>
                <mxCell id="9" value="6" style="rounded=0;whiteSpace=wrap;html=1;fontSize=19;" parent="7" vertex="1">
                    <mxGeometry x="30" y="150" width="130" height="40" as="geometry"/>
                </mxCell>
                <mxCell id="10" value="Enter the number you would like to count up to" style="text;html=1;strokeColor=none;fillColor=none;align=center;verticalAlign=middle;whiteSpace=wrap;rounded=0;fontSize=19;" parent="7" vertex="1">
                    <mxGeometry x="20" y="100" width="440" height="30" as="geometry"/>
                </mxCell>
                <mxCell id="12" value="Count" style="rounded=1;whiteSpace=wrap;html=1;fontSize=19;" parent="7" vertex="1">
                    <mxGeometry x="30" y="230" width="120" height="40" as="geometry"/>
                </mxCell>
                <mxCell id="13" value="1&lt;br&gt;2&lt;br&gt;3&lt;br&gt;4&lt;br&gt;5&lt;br&gt;6" style="text;html=1;strokeColor=none;fillColor=none;align=center;verticalAlign=middle;whiteSpace=wrap;rounded=0;fontSize=19;" parent="7" vertex="1">
                    <mxGeometry x="-30" y="340" width="150" height="30" as="geometry"/>
                </mxCell>
                <mxCell id="20" value="" style="shape=image;verticalLabelPosition=bottom;labelBackgroundColor=default;verticalAlign=top;aspect=fixed;imageAspect=0;image=data:image/jpeg,/9j/4AAQSkZJRgABAQAAAQABAAD/2wCEAAkGBxMTEhUTExMWFRUXFxgYGRcYGR8dGBgYGhgXFxoYGBgYICggHRolHRgXITEhJSkrLi4uHR8zODMtNygtLisBCgoKDg0OGxAQGy4mICUtLS0uLS0tLS0tLS0tLS0tLS0tLS0tLS0vLy0tLS0tLS0tLS0tLS0tLS0tLS0tLS0tLf/AABEIAIQBfQMBEQACEQEDEQH/xAAbAAABBQEBAAAAAAAAAAAAAAAGAQIEBQcDAP/EAEoQAAECAggCBggEAwcBCAMAAAECEQADBAUGEiExQVFhkRMiUnGh0TJCYoGxweHwFCNykgcVojNDssLS4vGCNFNjZHODk6MWJCX/xAAaAQACAwEBAAAAAAAAAAAAAAAABQEDBAIG/8QANBEAAgEDAwIDBgYDAQADAAAAAAECAwQREiExQVEFEyIUUmGBkbEVIzKh0fBCceHBM2Lx/9oADAMBAAIRAxEAPwC0gLBWgAYpMBI0wAcyYgBsGAEeDAHngwAhMBORpMAHngAQqgAapUAHgqABCYAPEwANeIAQmAkQmADzwAITAB4mABCYCRHgAR4AEKoAEvQALegAS9EYJyKFQYDIt6IAR4CTxMADYAEJgA9EAegAUQAIFwAOC4APX4AHdJAA5U4PEBkTpU7jnAApnI7Q5iAB6VA5EHuMADngOjzwAWYi4znFdOlgsVpfZ8eUADV02X2hAByVTUdrwPlAGTmqmI3P7T5QBkQUpPtftV5QBkaqlJ9r9qvKAMnk0pPtftPlAGUNNKGyuRgDKENLGyuUQGpDDS/ZV4ecBOpDFUz2Vf0/6oCNSEFM9hX9PnAGpHvxnsnmPOANQhpvs+IgDWNNP4eP0gDUNNP4Dn9ICNQhpp7I/d9IMBrG/jzsn930gwGsb/MOA5/SDAaz38w7oMBrGqrA+z4wYDWIKed08j5wYDWIaed08j5wYDWxprE7jkfODAa2M/mJ38PrBgNbGmnEnPwiMBrY1VPV2vAeUTgNbE/mCu0eSfKIwGpnvx6u0fDygwGpnhTV7nw8oMBqY4UxW5gDUxTSlbmAnUz34pW55mAMsYaSrc8zARlifiD2jzPnAGWKZvtHmYgMsYukAet4/WAMsb+JT2k/uESG4qZ6TkQdMxntEBuNVSkj1kj3iAnc5Gny+2jmIMEbifzGUWF9BJwGIJJ2AgwA+fTkyiUrUEFyCDgXBxBHAwYA5y65kHDpU/ffBgguatUOkTdLpJAfcGIZ1F4ZYdJHGTQOSuAC1mHCLzKymrSsJdHTemG6H0BPgIDkqZNraOtQSjpFKOQCCSe4RDkkss7hTlN4ityyVTFXX6Kb+3HBtCXin2ml3NKsLj3Sqpdq5UsstM1PehvnFsZqXBTUoTp/rWCPLtlJJASmaS+ACQ/uxiW8FcYOTwi5TSJqg/4ebpncBP8AV8Yod1SXU2rw64f+JWU+0HQ/2kicn9vyUY7hWhP9LKqtnVpLVJbEJNs0KLCVMJPFPnFjZnSyEFGRSJiQegKcHF5aQeQfGM0rumnjJvj4bWkskSs5k+UCo0dwNlj4NBC6pyeEdT8LrJZ5Bs2wcsJPNf8AtjSLtIQ1Sikz0hQlJQk5XphxG4ATlGapdwg8DCh4dUqx1cL4kyk1ZSEgkJlq/wCo+UVK+jngv/CJe8B9OtFNlrKFSQlQ3UeYwyjZCSksoWVaEqUtMkWlSqpNJBKJSAntKUpn2DDGKa1zClsy+3sZ1t1x3LmbUVJuukyr2GBvNxxEU+3w7M1/hM+6BOtq0pUhdyYiWDoesQe4uI1U6saizEw17WdF4kiRUM6k0lRCRLCR6SrpYcM8TwjivXjSWWd2tpKvLC46sLpdmlEYzQ/BH1MY/b5dhl+E0/eZQWjq6lSBellK0jPqdYcc8YvoXam8S2M9z4Y4R1U9/uD1ArGkzVhCAlSjkAnxOOXGNU5qKy3sLqdKU5aYrcPKvs0pvzZrlvVQAAeDvlC5+IPohxHwmOPUxtZ2XmBJMqcb2gUkN4CIhfvPqRM/CoOPpe/xAGlUmkoUUKUUqGBF0eUMoyUllCepSlTlpkty3qepqbSEhYmBCTkVM5G4ATlGerd06b09TVQ8PqVY6uF8S+rOyk4j8qbdDk4nEjBhkcsYq9uhnhl/4TU7oCqwTPlKKVzFgjc+OGkbITjNZQvq0ZUpaZLcLbL2TnKSJtIVMx9GW5DDdba8NNdhiuLv/Gn9RlZ2Kfqq/T+QrlWfksxR8YxefV95jP2ah7qKC01jF3TMkFeAcpvKYjhjgY10Lp8T+piurKnOOaez7dwUqOoZtImNemBCT1jeU79kPr8I017hU18TBa2Tqy32S5/g0SiWfkpAHRg8VBzzMLXWqPdtj6NvRSwoo6Uyy8makpEoB9UhjzGMTCtUTzk5qUaLjpkkZtX9nl0aaELlEhRZCg7q4McjDOlXjOORDXtJU5YjunwX9R2JlhIM5N5ZxYEhKeGBxjDWvZN4hshlb+HQUc1N2EirN0dSbqpYIwwc6Aga8Yo9qq9zT7DQ90FbSWTTJBWhAKMzhin6Rut7rV6Zci68sNHrp8duxWWaswKQrpVoaUDgGa+f9Pxibm50emPP2K7Kx8x658ff/hoFAqKTLDIlIDsSyQMRk/dC/wA6o/8AJjhW1Bf4odTLLyZqSkSUpUcbyUAKfvAx98dU69SMs5ycVrahOOHhGcWgqhdFWUTUBLuUq0UN9wdxDWlVVRZQgr0HSljldz1n7OT1KlzQkBN5KheLFgQXaOJ3dKMsNlkPD6846kgmtVZ2dOmKmIul1LUz9ouNGjj26nqLfwutp6GfU2hmWplC6p8U7RrjJSWUL6lOVOWmS3Dmy8z8uVgDiB3MpsOURIhFuc4qNArxAF1NjSZWAv8AEdX5Uv8AW/8ASfOIfJMeC8sVU9FlyUzJaxMWsdaY3NIHqgHTPeFFzUnKWJbfA9NY0IQgpQ3b6hKVJ38Iy4N6T7Azaqr6PMlm8pm1bKNFCc4y9JXXpRqQaqLYpv4e0GiOpd8rnJJwb0E5ApBOL9r3d995Opsnshb4dSo5bg8td+wfJmIG/L6xgwN8SKuupclaCFOcNh5x3BtPYlxbWJJYA2x1EoQpS7yyVpP5aSBd4kEnFQ20z7t9xKr5a7dRNQpW6rtQe/RPj5GkifL0vch5wu2GqjP4HGlzpZSbwPhBg6SmuxmVMm0IU5JWhRQCb7EXb2l4NiAcx8coZwVbydnv0Et1K29pWV/vsaVR6VLugpGGhvBiODCFjWHhjiOZLKex2XTEgYp8YCdD7mc24p0hUxKejBIUCq6WIS+IfQkecMLSE0m8ivxKtSwoS3f2DOpKfIVKSZKWQAwALXeBDYGMNWMlJ6+TdQlCcE6b2LRNLT2fH6RXsXaH3BK3lLo3RMtDqPoh8X3GGm8a7SM3L0mO+nThSaq79iPYivJfRJk3EpWnv6+6v1HUfY6vKEtTnyvsZ/D7mm4Klw/uF6KbwEYthrpRW2hr1MmUVKCdgGxJ0Ai6jSdSWEUV6sKEdcn8u4GWQr5EudMMyWhJmkMvRPsnZOr758NtzbylBKL46Ci1u4Ko3NY1dTRU018mHuhWPEkNpNa3ElRIYBySAw78I7jFyeERKMIrMtvmZvTK7RSKWlc1H5KSzAAEjcgDEO2G0NYUJQptRe4hq3VOrXTkvSjRqFTJRSCkOCMCDgRoQ2kKXFp+rkep6lmL2Jkulp1S/vgR04N8MDP4gUmjqARcaaWIY4pGpPA5N5Rvs4yzlcCvxKcFBQk8y6fAiWftSw6KkLYj0ZhyI2UdDx178y4tXnVBfI4s/EFjTVfzCij1pLUm+mYko63WCur1ReVjlgCCdozeRV91jFXlB/5r6lTXVqkpTdkrC1EZpLpA3JGHui+jbSbzLZGa6v6cI4hhv7AfQazmyJnSAlQUeukn0uP6uMbatGNSOBRb3k6U9XOeQ4q6vpU0gIW6iHusbwYElx3AwudrVT4HsfEbdrOo70uvZcsMVdZgQAC5BDjhiImNtUb4CfiNulnOQJrOnzVzBOCiFp9HHAcG+O8MI0YxjpEVW9qTqa+McBNVNqxMSAtdxYzSVMDxSTmIXVracHtuhvbXlKpH1YTLpNZsHK2GGJOGOI5xR5cuzNiq0u6+pRWktMsoMqWslwxILgDYceP2NtvbN+qYsvLyEcxpc9WDVQ19Mo56NZUZWmJ6ncNRwi+4tlUWVyZbO+8p6Z7r7BtQK5RMBKZoVdZ2Ls5YPtjC/wBnq+6OPbbf3kc60tIiWlTKvLDi7jnxeO4WtRvDWEV1PEKEItxeX2AyqqTLn0orpSyVki4D6J4cG0HzjZWjKnTxTQutasK1bVW56djRqOuWBry+sKEu4/3LGRNQd2++MdYK5ZBD+JAoZkuoqE/1LoDnvx9GNlm56vTx1F3iCjo/Mxnp3KuyZeTKOxP+Mw0YhXJeq14RSaB4gILlf3yjSZmB38QZTyU/r/yqjl8ggLqOuZtGUSguk+kg+iePA8Yrq0Y1FuaLa7nQeY8djQKBXaptGE+6AbtIN13H5KQRjxeMkrKK6jFeMz91FHX01U+WReYDFhke+NFKhGm8oy3PiFSutL2QPVYtMlQXfuqBwbPkNO/CLZxUlhmSnUlTkpRe4dVZXipsuYQGKLmYzvLCd9jGT2Kn3YyXi1ZdEVNaVouYkocjMG6G1bUxZTtacXkqreJV6kdOy/0VNFqoAhWOhH28acZF6k0wvqusphN0sRdWXIx6qFKGR3A0jM7Om3k3x8UrxWNiNX9LmstIXd6iDgMWVLQo455k4wQtaaeSKnideSxnAJUKhpzLO+sasGDIQVbS1S2SmZg+WGuwOUUzoQm8yRpp3damsRlsWVp58xCepMKfzaSnIeihSAnMaAmOFbUsvY7fiFw1+r7ACggqLusk8zuSY0cGVybeWEFXKmy8UdT3594YiOJ0ozWJIspXFSk/Q8BNT6VMTRr4UQropanw9IzlIVgRqkDSKXa0k1sXrxC4f+X2A+dR1TiVrN45OT8GyjRCEYrEUZqlSdSWqTyz0uglOWHv+kS0V5aCmzF4pZaiT+IljEvgUTcHJywHIRXKlDHC+hZ7RUz+p/UBkhS2KlFRb1iT8YsSS4OJTlLl5JUuVEnJf2XKlT0ovKu3JmDlh+WtsHaOVCOc4R26tRLCk/qQbVI/PKXUQZclTPh1pMtWRLZkxEYpcIJVJPllUZTByPEfKOzjJJoNZTpXVlrupfIgEY5s+UVVKEKjzJGild1aSxBhNaKsZsujhctZCumSh2SeqZJW2IbP3xX7LST4L14jcNfq/ZAimVMWorUp1KLknEmL1FJYRlnKUnqk9zqqhk6jlHRwE9mpY/CKSdqbp/5V4iXByl6gZTR8M/AQHYi5R3EGDkn2RZNLD7K/wK84lHMiXaJY6VDN/ZStdbgEco6yU82fow5/SJAgUnEhk8cMYADitAFUYh8blG78BMBiHyEQYMk8Yk6OE+ilsleMAFvZQXEzwpw6UMDqQsHD3RBD5RGrWQVTppSFEGYshnyKizNAjoq59XKV6iif0nyiSGWtTVxSklMtaSUuBeUhV4BwPScDAamMs7SnJ54N1PxKtCOOS+rmuaTLKhR5fSIBUCsS1qDAhiVILBwY49ip55ZY/FKrXCAebJmzpt+cJmJxVcOA4BshtGyMYxWELqlSVSWqT3DGz0lF2WmWoqD5kY3nxGHF4GcItpgZRHExSzSOSqAkuiY0GRg/alLplJuJXfnJQAosHKV4k7YbRDBAvOsNNKiRMlpBJwAJZ9NIkAyqWxU9FAWorRcSieMXBPTICbyQxBA78W0jmSyCeAYFl5l1Q6YdbgWHcHiQycJFjikv0oJ/T9YCUy3q+qzKStN4G+EjJmuqCvflEYDUc1VG5Jv5knLcvEpBqJH8tYMFeESRkfJo10veGRGPtJKT8YCDjTaEFrCyvG6hGGyEhIz4CIWxJzVV6f8AvDyHlE5IG0Cq5PSIEycsIKk3iLuCXDlruOEQTuXFsqHRlzFS5c9a5d5ayosDfmKClgdUdXqhsN84A3B2RUtHRilZ96kn5DjATk7qRLH94OYgyGGzpMpSVIuKmi7dCc05BZWMf1PENo6UJdiKESUjCYn9wickNPqhpmSB/ep/cICMN9CVRaQUeiogXkqyfrJvXTkd1YRy5x7lnkVPdf0K+ZLo6GvEJHEkfGJUk+GcypTjysHMz6J208zEnGGW9nlyUzZc1KFrlhXWMtKiSnJQSrdnGYjh1YR5ZdG3qzWYxZMtX+GXPVMkyZiJQShIvpW7ISE6uwYAAPkPdHKrU28Jnbs66WXFgz+NoepQW9k/L5RaZ8MeimUU4Juk7BJ8ojOCVFvglUqYyXWFFDjME4lLpN3E+jq3CI1rudKlPsQzW1H+0HyjrJzpYorqj/aMdMsMPveANLJ8maoo6RCF3esPRbJN5QY4nqnbHKOXJHSpTb4IMyt5YPWSp9rrHlEp54IdOS5Giv5I9VfIecSRpZdUOjzJgwkqAIwvMCOLAvwx3jNK7pJ4ybYeHV5LOAitZOE0SlSKEJAQghQSUuo4YdXNmOJxLxyryk3g6/DK6AKbaGWksUTHGGgL9z4RqW5hlBp4ZNqqlqngmXKWwwckAPwxximrWhT2kaKFnUrLMVsWv8rnkPcH7vpFXtlM0rwut8CmrOmrkKuzJShsXwI4GLqdWNRZiZq9tOi8SK9Vox/3Z5/SLTPgnVVTzOv3UNcTeLnMXglhhxgwQMp9b9FMXLKCSglLg4Ya5RBOCIbR/wDh/wBX0icEYO9DreZNICKOsgkC8HKQ5bEhLYRy5RXLO405y3Sb+QUUm1FNocmbQ5ckTZS1LBUEKJALAlJAIYjd9YNceMonyKj30v6AhItGpSgjoWJLenq7YuMI6wVPbkvaoo6pcvrM6lGYGLhlG8Md8Ylgi6pHpq2cxSaBoiCS6jQZmDFtZ6Eol3ypIEwKBT6QKUqYjnHMgiskGylV0md+bOnTRKPoJvEKWNCWxCfj3Z4ri60+mHI4s/Dtfrqcdu4VqqVF0pBmscW6VbE7kXs4x+1Ve4zVhb+6CdpKjnJF6VNmhtL6vi8aaF03tIouvDYSjmnsytsrUdJpK70yZNTKSWPWU6iPVGOW5+xdcXSprEeRfaWEqksz2S/c0BFRSma4/eSTzJhb7RV95jpW1Bf4oqa8s0FJNx0ncPFlO6nF7s5qWVCccYSASj1NSVz+hSVPmVOboT2iYZO4goa2JHYVVV8v9/gaDVdlJMsAm8tYBBUpRxcEHquwz+zjC6V5Ub22G0fDqCjhrJwrayUpQJSCktmCdAwwdoI3VRPc7fh9BrCQCJs7PNIElIcnEK0AGZPdDD2mGjWxPPw+rGroXD6ml1RZmXKQAZd9XrKUlyo7l/hCupXqTlngc0belSjp2ZKplQy1gjok/tHlHCqSXUuxS64M4tRZVUhV5IF0kC6SMCSw1hnb3GvZ8ii9sox/Mp8dgyspZESE3lBKppGKnDD2UPpx1+GO4ryqvC4RstLaFCOZbyYS/hUszDwjMbNSA62NlEKSZiSlKt3GPeAY129eUHh7ozXNrC4jlbNdcEOxVlUsJ8woWXNwBQISxIc+0493fl3d3Mv0R27mSys4x9c9+weSpIG3MQvSY1yiqr2opc5BCrvfeDjxi2lUlB5RzOEKsdElt/oz6orOy10tUpc1JSjFnxX7I7tW/wCGdWvJUtSXP7COnZw9ocG8pfv8DUKPR0IAAKQAGAD+DCFDy92PUsbJHZSEEMSOR8onBO/Yze2FQSRPQJUxIXNU13IOfWfTHmTvDK2rT0PUtkKL20g5x07N9P8A0MLP2fRR5YSkBzipWDqO58tIw1qkqstTGFvQp0Y6Ylx0AO0U4L8oBrdWZSlJnoKUkB1Bwyh/q+MMLWvJPQxbe2sKkXUjs1+5LsjZNMpImrKVzCHBcMgHsvq2vLjxc3Lm9MeCbOzjTWuW7+wXypLajmIyYGGUQK+s4iky2VdCh6KnDg88Rwi+lVlTeUZ69OnVWmS+eDPrN1fJRS1InqBmILIAxSSMyD2htpjqMNlxUnKknBbPkXWlCnGu4ze64NIk3BkSfdCvA73JaFp3PKJwQ1IAbeUWi9KggKvODMugA3OOOe3CGFq6ml446ZFV6qOpeZz1x2CKqFSOjR0Z6jC6wDNwxjFUUtT1cjOlp0LRjHQtETUceX1jnBbiRX2lVRDIV05N3gA76Xcc4uoqer0cma5S8t+bjH94MzqOpFUmZg4lg4q1bYaXvhDGvcKlH4iO2s3Wln/E0OqrOSJQUUIIKk3VdZRcODqdwMoX+21e40/DaHb9zjXFj5M0KWkFMxRJvOSH4gloIXtRPfdBPw6i1hbMCaFUB/E9BPNxsc/T/SdvH5b6lz+XrhuLaVi/O0VNv/f9Gk1fREoSEpuhIDABsITuTk8sfxpxisJbFlLAbTnAQ0Bdu7JyyhVIQpCFAEqBUOuwc6+k0brW4lF6HwLL22hUTmtmv3KeyJeSf1n4JhmxEEy8/vaKmXo8ExySXRjSZmBf8RkPJQdl49xBjl8kw4Z0sbbJcwiRNLrZkrA9IAZEDIsM9fitubbT648D+wvFUxTqLfuF5ph3PIxiHGlAVbO0i0jo03nOpBAHc+ZjbbUFLdi6/u3Qjpgt31B6zFpptGWzlUtR6yXxBOak8eGvjGqvbxqLK2YqtLyVOWJbpmoop95N4X8nxQoHkQ8KXB/1no4yi0nj9iitDXJQgsFe9JA97iLqFHVLdldxceVByUc/IEahtFNo84re8FtfG7OxD5EOeEMKtvGccLbAho3s41HKe+eTTKHXCZiAtK3CsdB4QrlCUXhnoKbpzipR4ONZV+JaCrpNNDj4RMKcpPCCbpQWqXQzGsa6mzpwmXim6eqxxHEneGtOhGEcHnq97OrU1R2S4NEs/T5k2UFKSXycZK4h4V16cacsJjy0ryq09Ul/0m0qeoA9VR7m+ZitJNmtf6MutDWEybNIWCkJOCDpxO5hvQpxjHY83f16lSppksJdAksJWE5TyrpXLT6x9TZLnPu07oy3lOC9XU2eG16kvQ1lLr2DQlW0YMob5AO3NLnuEEFMs6j1jsdu7WGNpGHPUU+KVKqSiv0lVZamzpc0Jki/ePWRoR2n9Vt/jF9xCEoZlt8TBZVasKmIb56GnC83o+MJ8o9ImwbtjSqQmUbiWGpBdQGpAbx08Y120abluY76daNJ6F/vuZ2iYpKgUkhQIIIzB4Q0aTWGeaUmnlcmt1GZ6pKTNSkLIxxYtoSGwVuPhkE1VQUsR4PU286jpp1FuTaSibdN0Jdtz5RwnHO5e28bcmRV4JvTL6f09dm0u+zt5vDmlp0rTweWuvN8x+Zz/eA3sZWE+ZLZaSpKcEr1VwxzbtfN4XXVOEZbPfsOPD61SpD1LZdQmK1AeifDzjNsM8mc2xp05c25MBSkYpGh9p9+GkM7WEFHK5EPiNWq56ZLC6fEfZGu5ktYk3VTEHJKcVJ4pcgXdwSBr3lzRjJauDmxupwloxlfY0ORNUUg9GsYsxZ8nfAsxyzzhfoWM6kOPPecaX/fmD1r7QTZaejRLXLvYFagOSWJD8f+Rpt6UZPLeTFd3U4RxFNZ6gBKkKWtKUAlZODZvu+m76Qwk0ll8CaMZTklHk1OqaNOTLSJiwpQGJu5+Pi0JJyg5PStj1FGM1BKbyyZSJM26bqwC2Bu5HnERcc7o7kpNYTM2reTMlrImveJd+1xeHFOcZR9PB5i4pVKc2p8/csrGUGk9ZaVhEtRwC0lV72gApLd748jGW6qU84ayzf4dTrpak8R+IaGjzWwUgKYYlBIfUteGHB4x6odn9RqlV6tfT/oEWyodICgqYq+jIFIYJ7w55uY32s6bWFyKfEadbOqTyvscLL2mMgiVMP5b4Kb0Cd/Z+HdkXNt5nqjyVWd55fonx9jQ5FNvBwoHiG+ULHFrkeRcXujtPrUS0Fa1JAGOIH2e6CMXJ4RzNQim5fcyu1to10qaFDqpQTcYAH9RIyOAw0hxQoKnHflnn7q6c5LTslx3Cqy9MpC5QMyX3KcAqG5ScowV4U4y9LHNrVqzpp1I/8AfkX8ycsA3ZZVxcN4l/CKcR7mjVLsZda2sp82aUzgUhJwRoOPHvhtb04RjmJ52/rVZT0zWF2Lixp/KUPa+Qi9mEJb3wEVMujwdI5JLcmNJnYF/wARV/lIG6vgDHL5OocF7ZGoZEmUlUuYiYpYczN+AfJPDnCa5qzqSw9sdD01nQhShmG7fUIejT2hGfBt1PsDVqKBJUg31JbN9uMX0JyUtjmtCFSm1UWxT2EqCjq/P6RMxQJupPqMSASO0WcRfd16n6MYFljbUk3NPV2+AeCUNxGAa6vgV1bUZCkm8pP37o7g2nsdcrDQGVDZuRPpK2mAolsSh2KidBrd35QxnXqQgtt2J/ZKEqzw9lyjQ5VEAAAugDAAEMBwhc992NFJJYRHp1ACksW5iJTwdqSexn1IqWjSaWgTVtKUcUgvjxbJD4H7ZhGtUlTelbievaUKdZOTwn0/vQ0iQJYAAIZsGGDaM2kLeXuNllLZD5glt6XhBgE59jP7cpo4bMrfBmBZ8fdnnrG+01/IweJOlpWv9XQKrNzaMZKOg9AYNg4OZvY+lvGSup63r5NFtodNeVx/eS3TNTxikv0sG7X0+jplm+m9ewCcMe7bvjTbQnKXpKLipCnTfm7rt3K2wdIo1xSQkpmuSp8SUvhdOHVAIDb97m28jPKb4Mvh0qeGoLcNETEceUYsDFqXQjVkuSEEqLABySwAG5JMdRTbwgbcd5YwZpVtPoiKb0ipZ6L1Sckrf07rZZ92fc1nCq6WnO4gjWoK51Y9P/vc0+RSkkAjEEAgg4EHIjDKFLWHhj5brKZINJS2WHfEhol3M9tnWlGmTUSygkJUL6k+kBqkcTr55MLanNRcl8hXfVqLkqct8Pd9gxqtcjo09EeowusMG4Ywvmpanq5GVNpxWjGOhPC0bnl9Yg79QMW8VRRKIUSpR9FgxvNoTkz4xqtVPV6eDHdyh5T81f67jrHVdR0SQuWtK1KAvLYu+qW0AODRxdTnKeJbIixpQjT1R3b5YToUnceMZ8Gx57HOtKFKnSymZdYjV37wWwPGO4ScXlFMo6k4tZRmdWVjKodJmJwmy3YTAMQPmN2zZxDGrTlWpp8PsK6Fanb1muV37Gg0WnIUApIBBDgg4EbiFulrZjxepZTJaaUOyOcRgHB9wMtjW0uayEy0G6oEnHFs0jv1MMbai0tT2E17cwyofqw9/wCC5qKtpMxAKE5YFL4pOzNGOrSlCXqGVCtGtHMH8uxcJnp28YqNGllfX9a0eVKV0iL14MEv6R1DNlFtGnKcvSZrioqUcze3buAtlrPikLM1QHRhRZALuXyOrDjn8d1xXdNaVyK7S1jVbqS47GkS6EAPR8IWZY4WEdJlXpWkpKAQcGaBNp5QSccYYCVrZmVRJ6Js7+wUpkuxurzF4HEp46awwjXnUg4rkVu3o06qm36fswyoplsGV4eUYGt9xrl9ETEKR2gfcYhonfsDtuavoipClzZgQpI6hALlXZG8abWU1LETBexhKn+YvmCFjFdRY4j4GG7POBUNO6KmWx4HAxydFwrKNJnYHfxDT+Sg+3/lMcvkI8FRYGfSekUmUkKlZrvkhKToxALKOzH5xjvFSxmXI28MnW1NR/T1zwaLNExh1UO2PWOfA3cfCFq0d2PdU+37/wDDPbappJ9JujGYS+fF84YWjprjkV+JxuHH/wCvwKezfT9On8O9/wDpu63/AGfsYtGmvo0evgWWbqqovK5/vJraZcy6Huu2LEs/KEjxnY9Um8blFaWTPKDdI92fuMaLdwUtym5jVlTapvcAaJSVy5oUh0rBbjjgzavtDaSjKOHweZhKpSqbbM1WrlzlS0mZLuqbEPl5d0JZqCk1F7Hp6dSbinJYZFrmfOSg3EAltTE01Fy3Z3OU1FuC3Mtmz1KmFUwm8+L/AAbQQ5iko4XB5SrKcqjc+TS7NUWcJKbygnBwlQcgbHEN3aeEK7idNz2Q/sadaNP1v/SLGmUaaQbqwP8Apx5v8opUoZ4NuJ9/2Myr6hTZcwmYSpz6e/l3Q1ozjKOx529t6tOeqbznqF1iqlmIHSrJReGCOGhW+uw012GK8rxl6Y7/ABGHh9tOC1y2z0CxUg7nw8ow5GmQHtlUK3M1KlKYYpOOHDyhja10vSxX4haSqfmR3+H8FPZaqZk+YFJJQhBcrGb7J4+Dcjoua0YRw92+hgsredSepbJdTThJLDHwHyEJ8noUsFBauqJk6VdSs4YtoSN2+8o029VQlujPd2zrwwnuZzKoK1TOiuG+7XdX+8X2xhq5xUdWdjzfkz16Mbmo2dqRUmUEKmLUczj1R7KQRgkfbQorVlUllI9FbW7o09Lf9+BZUqrrySLy/cW8QxitTx0RfjOzbMvtFUK6Ot8VIOStRwV56w1oV1UXxEF3ZyovK3T/ALuFVi6omy0XlqUm9iJe3tF8lHbnjliu60ZSxHp1GPh9CpTjmT56BOaKe0eQjKmMcmeWxqiahZmklaTvmnl6v2d4Z2tWLWngTeIW88+ZnK+xxsWJ5nHovQ/vH9Hh/wBW3jhHV35ej1fIp8PdXzPRx17GlSkK4c/pCvYfZKO2qaT0X5bXPXuveby3aNNt5er1GS8810/y/n3M8olCXOWJaA5PIDUnhDKc1BZYip0pVJaYmj1HUCZKAkKWTmeuoAl3wQCwD8O94VVK7nLOEego20aUcJv6ssqTVSVpIJV7lqA5AxwqjTysfQtdOLWG39WAVoqsXRzi5Qcj8jxhlRrKoviIbuzlReVuixsnZ5ST00wqClZJBIYe02Z4HKM1zcKXpiMLCycPzJ89v5DFNFG6uZjJkZ4wDVrLNqWOklFSlAYpJJcey+R4Rrt7hR9Mhde2jqrVHnsBNWVnMo0y8nuUg4BQ2Ox46eEbqlONRYYno150JZXzRoVU19LnNdvgkEspCtA56wF084XStpJ4WPqO4X1NrLyvkyTTq+RKS7TFG7ewQpscus10e84RxG3k3jb6nUruCTe7+TM0r2tZlImFaz+lOiRsPOGlKlGmsIQ3FxOtLLLay8+mhH5SAuXi18s3BJd29xjPcRot+p4Zss6l0o+lZj8Qrp9IpKf7KSFhhiVANg5wfeKHSoe+bFcXTX/x/uZ9aOkTlzD0zuMhoBw84YUYwUfQJrypVlP8z6FlZBXpj9P+aLGZArRkPvWKpF0eDoDHJ0W6jGkzsDP4hn8uW7tfL75f8xy+TqGOoVWWnUMyE/hiQgDEMLwVrex9LjCSvGet6+T09q4umvKxj+8luqYj2uQ84pNaU/gDNqqxo8tBKgS+DEjE7ANGihTlJ7FdesqMM1MFP/D+uKML0oyxLmKU4L+mNEgkZgad53i+8pTeJZyhdYXFNtxSUW/3DvpU7eMLxthldW1NlpQSoZakxZCLk8InOhapPYF7MUuizKSpS03ZuUsn0W4e38stY2V4VY08LjqLKdehWr6kt+gdpWnc8oX4GG5xpZlsXJ5RMc52OlqRnVNrOjy6YlYlCbdJCu/QpbNSeXvyaQpVJUms4FF1c0FXTxlrlh/QawlzEBaA4PH5NgYWyg4PDGsJKotUXsd10tIGKRAd6H3M+tjXqVkypaUuD1lDQjFg+vHSGNtQa9TFPiF4seVHfuy9svagzUhEwgTGzwZYGvA8PsZ7i20bx4LbO7jWWmf6vuEX432h4RkwMNKBS19pykGVLIKzmWDJHzMbba31PVLgwXl2qK0w/V9itshabogJMxrr9VRAwJJLKOxJz58Lbm21euPJksrxL8up9f5DtNN/T4QuwOtKKyvrSJkoL3So5Bg5PDzi6jQdSRRcVYUI62/l3AKrbTTET1TilKipgQdEj1UnTvbTvhjO2jKGgRQvpqq6jXP2NJqquUzkBaLp3GoOxD5wrnSdOWGPaVSFWOqLJyqfdBJugDU5eMcJNljhHqzO7V2tVOWEyroQhQLhI6ykkEaei49/dmzt7VRWZcsS3N7vpp8Lq98/8CWzlpBPSzJCxmlvEcPhGOtbuk/gMba5hXj2fYvhSzsOUUGrQgOtjacAGVLulZwUWBujb9Ubba3z6pC+8u1TWiO7+xLsVWdHMhMpCLq0DrJfFR1XxB8MtorvKc1PU+CbCrCUNMdmv7kKEUhOx5/SMqN+lsWk02UlClLwADkk4NFiTey5OJJx9TexlS69EqlLnSEBKFYFByI34F8YZ+RrpqM3uJPa1Cs5wW3YPKpr5M5AUhSeIZIUDsRC6pSlB4aHNGrTqx1RZZisGDkpDcBHGGWuMeoIWor9c0hCCm6CC+AcguGYZA4wwt6GPVLkS3d4s6KXHc7VBaYL/LmKSJg3YBfc+vD7FFa107x4NtpfxqLTPZ/cJkUniPCM+k35iVFf2rElJTLKVTDkGBCeJ8ovo27nzwYru5p0ltvL/YGWdqv8XOWuaoFjeUHDqJxxHZ/4jXcVfKhiIttKKr1HKZo1Ho7BmwhTlsepJbIkijuGaA6ygJtPZaTKmJmqWlEtSgFJcYk9ljgNx8IYUbio46cZYqrWlBzU28LqgpoMpASLpSzYNk0YpZb3GcUksJFilCcnSffHIZyUNsako8ySpcyYlF3EK1Hhj3Rot6s4yxHf4GK7pQqQ9ax8ewC2OPWmB9B4H6w4Z5rAXS8orlyWwOojk6LcxoM7Az+Iq/y5Y9onkPrEPkI8DrB2amo//YmKVLvDCWMLwOqwdNhC28uIv0Lce+G2k4fmSeM9P5DObRydT4eUYMjoA7Y1ApX5iSokaEvhw2hha10vSxZ4hZOqtcXuuhUWVs4ukrcuiWk9ZWpPZS+vHSL7i4jTWOWxZZ2c6ssvZI1OXQ2SACpgNSSfeTiYTuWXk9JGOFjJR2gqTpEnrKfTrEh/0u0aKNfQyq4to1oaWzPpVXTjPEkJJW+Df4n0A3hr5sNGp8HnHa1Y1fLxv/dzU6uos5EtKVTb5AYkpzPfmw44mE85wk20j0dOnUjFJy3/ANFfX9BnLQoJms40SB458o7ozhGWWgq0Zzg0pYM7olXzjOElKOvto3aJ7PH5w2dWCjrb2PN+y1fN8vG/93NRqSpxKQxJKtS5xPAaCE1au6ks9D0NtbKhHGdztTKrSoet+9TfGOY1GjQ4RfJm1f1CqSt0AlBOHsk6EnTjDShXU1h8iG9sXSeqHD/YPbM2c/Doc9aYoC8oYga3U+z8eTYLiu6jx0Qys7aFGOer/uxfij8IzmzWgatZUCFoKlEJIDhTjDv4Rqt6soPBmuKVOvB55XUpLEWeSsCkLIUyiEJfAFJa8ob7DuOzXXdeS9ETBYWsH+ZJ57B6mj8IW7jjUivrqpUzkFKkhj9uNjFtKpKDyjipGnVi4SM5o1m1mk9AFAtje2T3drhDZ3CVLW0ef9ifn+Un/wDn8mlVZVCJSAlKcBuMX3J3hTOpKb1Me0qUKUdMSVNoKVA9UcvnEKTXUs26md2rsuqWq/KT1VEAp2KiAG4EkYQyt7nUtMhPe2KT10+H0CWzVm0yEdYXlqAvEjD9I4fHwGSvcSqPbg3WlpCjHfeRemhJOFwcooyzZsCVrbKEgzZabqtcGCgPB+P2NtvcNemQuvLSFVaoY1IHLIVTMnTRMBUhCC5UMCT2U+7Ph3xoua0YRw92xdZW86k9S2S6mmyaKe2o8vkIV6l2PQYfcrLT1CqdLZMxTjEA+ie8AeMXUKyhLdFFzR8+GlPczyiVPMmTxIIuqfF9AMyN+EMp1oxhrEULacqvlvZmmVTUyZMsISjqjhmdydTCedSc3qZ6GlShSjpiWSaID6vhHGpljaQG2ys4pCVTpYYZlO+5Tx4fZYW1w36ZCi9tYyzUp/NDLKWcCEibNSFTDkCHCB57n3d9dzdNvTF7F9nYxhHVNZb/AGCxFDQzXEtjhdDY54Rn8yb6m5Uaa3wimr+yyZyXQAhYyIDA8FNp8Ito3Lg990UXNpTqrbZmdTOmos7VExBy79CNQYaempH4Hn/zKFTbZo0uq58xctKlyyhRGKXdoUVIxUsRZ6WjKcoJzWGTnUEkhJJ2DY8MTFeFnktbaRl1paZOnTSZoKLuAQfVHnxhzQhGEfSeYvK1SpN69sdB9TWoXRxcI6RGjqYp4AscOEc1baNR54Z3b+Izox0vdBrPtAESpc264mIStnycs3uMZ3ZP3jYvFk/8QKtBXMykKIUWSMkvg+53Ma6NCNNbC67vJ13h7LsPskfzFD2fmIuZjQYyTh74rkXQOrxwdlvvGgysC/4gkgSFAsQpRHuuEHnHMlnY6hJx3Rd2WtkKQLky4iaBjgAFcU8dxCqvaum8x4PQ2l7CqsS2l9y9mU8jFw27Box6X2GOYd/3BW1VeKuEJIJ3AGHKN1tbuW8uBfeX8KUdNPd/YSxlfqTKTLmBJAJZRA1L9YjiTjHdza5eqJks79foqP5/yFZrA8OUL3B9h0pQ7/uU9eV6UoLEPowH20X0LaU3utjPcXlKjFvOX2yU1kq0CVr6VN5Sy/ScNEHZOo7zGq5tm4rT06C+zv05vzOX1/8AAzTS09nx+kLR2k3vk40unISkkgAAYknARMVqeES3oWpvYz6lVws0gTZPUCXAPaBzveydvnk2hbLRpmeeuPEnKqpQ4X7hjV1ohMSHUlKtUkhweBOcL6trODwllDOheUasct4fbJOpFb3A6loSMQ5YYjNn1GsVqjN8Jl0q1BLeS+oE15XCqSopST0YP7uLbcIaW9t5ay+RHe3/AJvoh+n7kypqyVLAQpykZbjh3QV7VT3jyTaeIul6Z7r7F8qsQJRm43Qm9xbpBL37REZPYqnwGP4vR7MFaxrk0g3QClA0OZPFvhGyhbKnu+RZe+Iyr+mOy+4tFpSpKnRiHF5P3kYsrUI1Fhme2u50JZXHVBPV9Ypm+i+aBjoVm6Bzhc7Kouw6j4tQfOStrevAHQjFWT6DzMW0LOTeZlVz4tFRcaXPcoJCCDfDhQchT6wxcE1h8CNVpKWrO4TVbaK8AlSilWWrHjhlCyrZyT9G6H1v4lSlH83ZllSK6EsOqYQ7gZl7punLY4RUrarnGDRK/tcZygJtBWkykLGJKBkCfE8W5Qyo0FTXxEl1eus8LaK4RY1PaMoFyaosMl4nDZTfGM9e0beaf0Nln4kktNb6hEK1SJfSX+owUTjgCq6CzPnhGX2Wr2N/4jb+8B1pK/M7qS1G56xxBPDHTzjbb22jeXItvfEVUWinwWlkLRIShNHWhKVD0VZBXA7K+PfFF3bNtzRbYXkcKnLbsF8un+yOZjAhxjPUWnV0mVLK1hIGgzJOwB1i2nTc3hFFacKUdUmZjWlYrnTTNPVV6reqBkBDenRjCOk87WuZVKmvjsXlW2pSEgTSUqycAkHjhlGGrZyz6OBtb+JwccVdmENIrFMtLrUQHbU4sC2HAxT7JVzjBo/Ebf3v2BOva5M4s5CBpvxMb6Fuqay+RRd3zrPEdokup7RlACJkwgDJZPgrzim4tM+qH0NNn4gl6Kv1/kI6NWgWLyZgUnHEKBGAc4jYRi8mp7rGiuaHvL6kWs7RFKGQt1HDA4DiYvo2spP1LCM1zfUqcfRhsGKlkSlUgzJ6iVkul8QT3nXJo1XKnGniHBgsakJ1dVT9XTIdSVyx6x/b9YVj/L7EuVMl9o8ogh6uiBL+I1HoxlpUFEzyWQAACccUqxyxz5axvs3NPbgVX8Yyj6liXT4nrJWb6JF5SXmHElnbgPvGK7i4c5YXBfaWkKMfVywpl0bhGZyfc2aY9kVdfWMFLSSgETAMFN4HcRot684PujDeW9GovVs+5n1Q0VUmlLlTMFJCkkcXBhspKSyjz06bhJxYYSco5kdQOwjgsLgiNBlYE2/OEr/r/wAkQ+SEAiNXiQNCo6gmgJ4UaXzM9JMcy5JQP0+lgoZvfEoGJVs4FKQUukEk6g4bGAAlqpby2Zh08phsAJhA8YGtgzuVFLmflAcBEohnKrpwAzHOAC7qmmKJmi8WEpRAfI4ANtnFUqNN7tI0Rua0VhSZEtVSPzpyb3VC2CXwDMMvdE06cI8I4qV6k9pSbKOhrG45iLCpEmjKAUkOMxi/GAkubVTRdT/6tJP/ANv0jlckdAZlUjHAjnHQIlKpRwYjmIgkJ1TB+Bc6yc9P+1oJgfQECcikpxxHMRJydkU0AHIvx8YCQishSL17L+1o4wO8wxD4DqVfTovklaBnheAYnTE4GOlwcsRVIl3S0xGR9YRIEOr5rzEC+MVoDO5PWEcnRdWjWCJbqA604sSB/eqfPiIhcsOhQBaTkpA71DhEkEOfMxPWHMQEhjKV/wDz1uR/2dHd/b7xD6EIEUqA1HOJJEpM8cOcQSXdlKwX+Y6lKYIIdRLdYAhtM44dKD6IsVeqttT+pwrykD8RNClZTFgOXYXiwHuaJjFJbI5lOUuWQlTUt6QjoghzpwcY6wEZDq1MwCQ6i35sv+qS8D5IjwCJpCM73gfKAk4UylJILEciPlEYJyFVh1AyAP8AxZg/dJMTLg5XIP8A8wSfW8D5QHRHnU8b+B8ojAZLOp7WTL6JawlQKgm8XCmJbHQ8oyzsoSeeBjS8UqwjhrIR17Xxo7AAF1LTi+F1tB3xx7DHPJb+L1Gv0oAa2p6pqipSnJ1Y8hsI2QgorCFtWtOpLVJ7hBZ62RQOjnqLaLx5KA+P/MY69pn1Q+gztPEkvTW+v8hfRK5lrTfTMCkvdcPmztGN21XsM1fW/vIprQW5liWU0dRUs4XmICeIcYmL6NnJvMzHc+JQUcU92CVmlE0gKJJJCiSczgc/fDLCS2ETk5PLDmjnA8CPnHEiyB1eOCwuVDCNBmkUNoqm/EoSkKCSkuCQ4Y4EM/dygwcpg1/+BL1np/Yf9UAFwuo5hldD0qWuIR6BdkqvdrOIayCZAVYxw3SJ/Z/ugDIkuxrf3oP/ALf+6AnJY0WpVS03UTEgX0r/ALP1gCB62WMGAyQ1WTcN0g7+j/3RJGRqLJAf3g/+P/dAGSVQ6lMq/dmDrpunqaODh1uAiMBk4UuzpmLUtUwOoklkanHtQYDJxRZUBz0m3q+7DGJDI6VZ5lA3zgQfR2PfAGSRTqqM0ddZPWWoMlgCtV5Wu5iMAQE2ZA9c/t+sAZHizg7fgPODBOSeaGoyuhMzqXLmCRlfEz/EIMEZK4WaSPXPL6xICmzyGa+p99G2aIDJKq6hqkA3FnFSFF0g4oJKfEwBkgKqYO5UeQgAU1SMnPKJAZJqwJUFAqdJBGWYLiIA70+iGY18qLORgPWUVHxMAEYVMn2/DygAbNqZD5r8PKAMksIV0fRX1XCm4QyfRvX827UAENVToAzV4eUADf5Uj2+Y8oAydKHRRLvXLwvBjiMnB24QALOoSVrUtV4lRJJcZnuEQSL/ACuX7XMeUSSKall+3zHlAQTKSgzEhC1KUkFJZx6qbqcW2JEQBwTVMrVKmOXW+mMBIsqrUJJIBxBGLHA8CIAO9Bo3RBpalJD3mB9ZmflBkgjCqJex5wEimp5WoPPygAVFSygXCS+7mDIEmk0FMz0ypWJOKjmWc+AgAj/yST2TzMRkDyajkD1H7yfODLBMlSqvShNxLhJN5gos+8GSckY1DI7H9R84MkHah1bLlG8hLHLEk4bYwZIL6gAdHM3JS3ucn5RzItghQiOMFxcKjQZ8HG4rK8eQgyRoGmUe0eQgDQN6I9o+HlEBpEKDufDyiQ0jDLO58PKIDSNunc+HlAGkQhW/w8oA0DSFb/DygyTpEuHf4eUGQ0nilW/gPKDJGkQoV2jyHlEZJ0jShXaPIeUGQ0oaZau0eQ8oMhpGmWT6x8PKDIaUIZaj6xHLygyGlDDJPaPh5QZDQhDKPaMGSdCGGSe0fDygyGhCKlHtHw8oMhoR4yFdo+HlBkNCE6I9o+HlBkNCGqkntGDIaEIJZ7R+/dEZJ0IRKDuYMhoR7ojuYMhoR78LxPODIaEeXRuJ5wZDQjyaGOPODLDQhpoY484jLJ0I9+CHHmYMhoQhog48zBlhoQ/8JxV+4wZYaUIaEOP7j5wZYaUIui9/MwZDShwoQ48z5wZDShfwg48zBkNKPfghx/cfOIyGlCGiDjzPnE5DShwoo48z5wZDSjwog4/uPnEZDShRQxx5nzgyGlDjQxx5nzgyTpQqaKnj+4+cGQ0of+CTx5nzgyw0ocmgI2P7j5xGSdKJKJYGUBOBzQElmYtKhsACGABIAEIgAaYAEIiAGqEAHgIAEIgA8RAB4iABrQANIgJGkQAeIgAaoQANUmABGgJEIgA8BAB4piAObRBIjQANSIAFMADkwAI8ACiABoEACkQAeuwAObFoAFuwANKYAHNAB5IiAPNAAhEADkiABUiABwEQAi4AGgYwEnQQAPOUBIqYAPQAf//Z;" vertex="1" parent="7">
                    <mxGeometry x="350" y="150" width="381" height="132" as="geometry"/>
                </mxCell>
            </root>
        </mxGraphModel>
    </diagram>
</mxfile>